# xmcd
#
# Track frame offsets:
#	150
#	18342
#	32000
#	46915
#	61850
#	79452
#	90122
#	104840
#	121472
#	131572
#	146407
#	163105
#
# Disc length: 2398 seconds
#
# Revision: 0
# Processed by: cddbd v1.5.2PL0 Copyright (c) Steve Scherf et al.
# Submitted via: audiograbber 1.83.01
#
DISCID=9b095c0c
DTITLE=Céline Et Guylaine - Ma Meilleure Amie
DYEAR=1900
DGENRE=country
TTITLE0=Céline Et Guylaine Royer - Ma Meilleure Amie (Céline Royer)
TTITLE1=Céline Et Guylaine Royer - Hommage à Maman (Raymond Dufour - Ghyslain G
TTITLE1=uénette)
TTITLE2=Céline Et Guylaine Royer - Chaque Jour Suffit Sa Peine (Paul Daraîche &
TTITLE2=François Vaillant
TTITLE3=Céline Et Guylaine Royer - Pourquoi Moi, Mon Dieu (Kristofferson, Vilon
TTITLE3=)
TTITLE4=Céline Et Guylaine Royer - Oublie-moi (Herman Huet and Céline Royer - Her
TTITLE4=man Huet)
TTITLE5=Céline Et Guylaine Royer - Aime-moi Darling (Céline Royer)
TTITLE6=Céline Et Guylaine Royer - Chanter, C'est oute Ma Vie (Céline Royer)
TTITLE7=Céline Et Guylaine Royer - Souvenir D'un Grand Amour (Raymond Dufour)
TTITLE8=Céline Et Guylaine Royer - Dis Que Tu Viendras (Céline Royer)
TTITLE9=Céline Et Guylaine Royer - J'ai Besoin D'une Maman (Georges Hamel)
TTITLE10=Céline Et Guylaine Royer - On S'accroche à L'espoir (Marthe St-Pierre 
TTITLE10=et Céline Royer - Réjean Jetté)
TTITLE11=Céline Et Guylaine Royer - Ma Katherine Chérie (Georges Hamel)
EXTD=
EXTT0=
EXTT1=
EXTT2=
EXTT3=
EXTT4=
EXTT5=
EXTT6=
EXTT7=
EXTT8=
EXTT9=
EXTT10=
EXTT11=
PLAYORDER=
